<svg xmlns="http://www.w3.org/2000/svg" xmlns:xlink="http://www.w3.org/1999/xlink" width="500" zoomAndPan="magnify" viewBox="0 0 375 374.999991" height="500" preserveAspectRatio="xMidYMid meet" version="1.0"><defs><g/><clipPath id="f35e4a5de8"><path d="M 114 120.835938 L 261 120.835938 L 261 192 L 114 192 Z M 114 120.835938 " clip-rule="nonzero"/></clipPath></defs><path fill="#004aad" d="M 170.476562 184.644531 C 166.144531 186.042969 161.925781 187.324219 157.878906 188.476562 C 165.175781 195.589844 175.140625 199.964844 186.132812 199.964844 C 194.726562 199.964844 202.699219 197.289062 209.257812 192.71875 C 205.40625 193.933594 201.3125 194.585938 197.0625 194.585938 C 186.886719 194.585938 177.59375 190.835938 170.476562 184.644531 Z M 170.476562 184.644531 " fill-opacity="1" fill-rule="nonzero"/><g clip-path="url(#f35e4a5de8)"><path fill="#004aad" d="M 260.699219 132.589844 C 258.917969 127.964844 242.339844 129.726562 219.269531 136.179688 C 220.117188 137.371094 220.894531 138.617188 221.597656 139.902344 C 231.304688 137.65625 237.671875 137.257812 238.429688 139.230469 C 239.191406 141.195312 234.207031 145.167969 225.519531 150.007812 C 216.675781 154.9375 203.976562 160.773438 189.59375 166.316406 C 179.898438 170.050781 170.683594 173.171875 162.683594 175.507812 C 162.035156 174.472656 161.433594 173.40625 160.882812 172.316406 C 159.984375 170.535156 159.214844 168.683594 158.585938 166.765625 C 158.210938 165.632812 157.882812 164.472656 157.613281 163.296875 C 157.304688 161.992188 157.066406 160.660156 156.890625 159.3125 C 156.730469 158.074219 156.628906 156.816406 156.589844 155.539062 C 156.566406 155.0625 156.558594 154.578125 156.558594 154.089844 C 156.558594 140.316406 163.429688 128.152344 173.933594 120.839844 C 157.527344 126.015625 145.632812 141.351562 145.632812 159.464844 C 145.632812 159.898438 145.644531 160.328125 145.65625 160.753906 C 145.695312 162.046875 145.792969 163.320312 145.953125 164.582031 C 125.339844 175.003906 112.496094 184.492188 114.234375 189.007812 C 116.007812 193.601562 132.355469 191.902344 155.164062 185.5625 C 159.121094 184.460938 163.273438 183.222656 167.578125 181.855469 C 175.378906 179.371094 183.679688 176.457031 192.230469 173.164062 C 204.890625 168.289062 216.59375 163.152344 226.613281 158.203125 C 248.605469 147.316406 262.507812 137.28125 260.699219 132.589844 Z M 135.203125 178.996094 C 134.480469 177.128906 138.914062 173.46875 146.761719 168.980469 C 147.046875 170.175781 147.382812 171.347656 147.773438 172.496094 C 148.109375 173.472656 148.476562 174.433594 148.878906 175.375 C 149.359375 176.503906 149.894531 177.605469 150.46875 178.675781 C 141.648438 180.601562 135.921875 180.859375 135.203125 178.996094 Z M 135.203125 178.996094 " fill-opacity="1" fill-rule="nonzero"/></g><g fill="#004aad" fill-opacity="1"><g transform="translate(77.824219, 247.497757)"><g><path d="M 23.078125 -7.84375 C 23.078125 -5.28125 22.332031 -3.332031 20.84375 -2 C 19.132812 -0.507812 16.382812 0.234375 12.59375 0.234375 C 9.613281 0.234375 7.082031 -0.335938 5 -1.484375 C 2.914062 -2.628906 1.675781 -4.441406 1.28125 -6.921875 L 8.40625 -6.921875 C 8.5625 -5.296875 9.972656 -4.484375 12.640625 -4.484375 C 14.265625 -4.484375 15.382812 -4.65625 16 -5 C 16.613281 -5.34375 16.921875 -5.957031 16.921875 -6.84375 C 16.921875 -7.082031 16.832031 -7.304688 16.65625 -7.515625 C 16.488281 -7.734375 16.222656 -7.921875 15.859375 -8.078125 C 15.492188 -8.234375 15.128906 -8.378906 14.765625 -8.515625 C 14.410156 -8.648438 13.945312 -8.785156 13.375 -8.921875 C 12.800781 -9.054688 12.320312 -9.160156 11.9375 -9.234375 C 11.550781 -9.316406 11.046875 -9.410156 10.421875 -9.515625 C 9.796875 -9.628906 9.363281 -9.710938 9.125 -9.765625 C 7.738281 -10.003906 6.484375 -10.375 5.359375 -10.875 C 2.660156 -12.019531 1.3125 -13.796875 1.3125 -16.203125 C 1.3125 -18.628906 2.046875 -20.46875 3.515625 -21.71875 C 5.171875 -23.132812 7.894531 -23.84375 11.6875 -23.84375 C 14.613281 -23.84375 17.148438 -23.203125 19.296875 -21.921875 C 21.441406 -20.640625 22.515625 -18.863281 22.515625 -16.59375 L 15.359375 -16.59375 C 15.222656 -18.28125 14.007812 -19.125 11.71875 -19.125 C 10.414062 -19.125 9.382812 -18.945312 8.625 -18.59375 C 7.863281 -18.25 7.484375 -17.851562 7.484375 -17.40625 C 7.484375 -17.082031 7.59375 -16.773438 7.8125 -16.484375 C 8.039062 -16.191406 8.398438 -15.929688 8.890625 -15.703125 C 9.390625 -15.472656 9.851562 -15.273438 10.28125 -15.109375 C 10.707031 -14.953125 11.289062 -14.785156 12.03125 -14.609375 C 12.78125 -14.441406 13.332031 -14.320312 13.6875 -14.25 C 14.050781 -14.1875 14.582031 -14.085938 15.28125 -13.953125 C 16.613281 -13.691406 17.867188 -13.332031 19.046875 -12.875 C 21.734375 -11.78125 23.078125 -10.101562 23.078125 -7.84375 Z M 23.078125 -7.84375 "/></g></g></g><g fill="#004aad" fill-opacity="1"><g transform="translate(102.181799, 247.497757)"><g><path d="M 8.046875 -7.59375 L 8.046875 0 L 1.875 0 L 1.875 -23.40625 L 8.046875 -23.40625 L 8.046875 -11.28125 L 8.765625 -11.28125 L 13.515625 -17 L 20.84375 -17 L 14.359375 -9.078125 L 20.796875 0 L 13.515625 0 Z M 8.046875 -7.59375 "/></g></g></g><g fill="#004aad" fill-opacity="1"><g transform="translate(123.299706, 247.497757)"><g><path d="M 14.203125 -17 L 21 -17 L 15.125 -0.6875 C 13.84375 2.914062 12.210938 5.359375 10.234375 6.640625 C 9.140625 7.335938 7.78125 7.6875 6.15625 7.6875 C 4.257812 7.6875 2.78125 7.550781 1.71875 7.28125 C 1.632812 7.25 1.53125 7.070312 1.40625 6.75 C 1.289062 6.4375 1.15625 5.984375 1 5.390625 C 0.84375 4.804688 0.75 4.445312 0.71875 4.3125 L 0.71875 2.71875 C 1.625 3.0625 2.476562 3.234375 3.28125 3.234375 C 4.394531 3.234375 5.1875 3.015625 5.65625 2.578125 C 6.125 2.140625 6.359375 1.375 6.359375 0.28125 C 6.359375 -0.175781 6.265625 -0.65625 6.078125 -1.15625 L 0.28125 -17 L 7 -17 L 10.640625 -4 Z M 0.71875 6.875 C 0.507812 4.875 0.457031 3.875 0.5625 3.875 C 0.582031 3.90625 0.632812 4.050781 0.71875 4.3125 Z M 0.71875 6.875 "/></g></g></g><g fill="#004aad" fill-opacity="1"><g transform="translate(144.57759, 247.497757)"><g><path d="M 1.875 -23.40625 L 19.484375 -23.40625 L 19.484375 -18.6875 L 8.046875 -18.6875 L 8.046875 -12.875 L 17.875 -12.875 L 17.875 -8.078125 L 8.046875 -8.078125 L 8.046875 0 L 1.875 0 Z M 1.875 -23.40625 "/></g></g></g><g fill="#004aad" fill-opacity="1"><g transform="translate(164.935564, 247.497757)"><g><path d="M 11 0.234375 C 7.507812 0.234375 4.921875 -0.695312 3.234375 -2.5625 C 1.796875 -4.15625 1.078125 -6.148438 1.078125 -8.546875 C 1.078125 -10.953125 1.796875 -12.957031 3.234375 -14.5625 C 4.941406 -16.457031 7.53125 -17.40625 11 -17.40625 C 14.488281 -17.40625 17.085938 -16.457031 18.796875 -14.5625 C 20.210938 -12.988281 20.921875 -10.988281 20.921875 -8.5625 C 20.921875 -6.132812 20.210938 -4.132812 18.796875 -2.5625 C 17.117188 -0.695312 14.519531 0.234375 11 0.234375 Z M 8.1875 -5.0625 C 8.832031 -4.351562 9.769531 -4 11 -4 C 12.226562 -4 13.160156 -4.351562 13.796875 -5.0625 C 14.441406 -5.769531 14.765625 -6.9375 14.765625 -8.5625 C 14.765625 -11.625 13.507812 -13.15625 11 -13.15625 C 8.488281 -13.15625 7.234375 -11.625 7.234375 -8.5625 C 7.234375 -6.9375 7.550781 -5.769531 8.1875 -5.0625 Z M 8.1875 -5.0625 "/></g></g></g><g fill="#004aad" fill-opacity="1"><g transform="translate(186.933373, 247.497757)"><g><path d="M 8.125 -14.40625 C 8.675781 -15.4375 9.5 -16.191406 10.59375 -16.671875 C 11.6875 -17.160156 12.71875 -17.40625 13.6875 -17.40625 C 14.132812 -17.40625 14.519531 -17.363281 14.84375 -17.28125 C 14.945312 -17.226562 15.066406 -17.1875 15.203125 -17.15625 C 15.253906 -17.132812 15.28125 -17.125 15.28125 -17.125 L 15.28125 -12.3125 C 14.394531 -12.582031 13.53125 -12.71875 12.6875 -12.71875 C 11.457031 -12.71875 10.375 -12.394531 9.4375 -11.75 C 8.507812 -11.113281 8.046875 -10.300781 8.046875 -9.3125 L 8.046875 0 L 1.875 0 L 1.875 -17 L 7.953125 -17 Z M 8.125 -14.40625 "/></g></g></g><g fill="#004aad" fill-opacity="1"><g transform="translate(202.731803, 247.497757)"><g><path d="M 14.234375 -1.640625 C 12.929688 -0.390625 11 0.234375 8.4375 0.234375 C 6.300781 0.234375 4.539062 -0.628906 3.15625 -2.359375 C 1.769531 -4.085938 1.078125 -6.179688 1.078125 -8.640625 C 1.078125 -11.273438 1.742188 -13.394531 3.078125 -15 C 4.410156 -16.601562 6.28125 -17.40625 8.6875 -17.40625 C 11.269531 -17.40625 13.117188 -16.84375 14.234375 -15.71875 L 14.359375 -17 L 20.40625 -17 L 20.40625 -1.125 C 20.40625 2.019531 19.660156 4.347656 18.171875 5.859375 C 16.691406 7.367188 14.222656 8.125 10.765625 8.125 C 8.460938 8.125 6.472656 7.578125 4.796875 6.484375 C 3.117188 5.390625 2.117188 4.109375 1.796875 2.640625 L 8.234375 2.640625 C 8.710938 3.460938 9.632812 3.875 11 3.875 C 12.175781 3.875 13.007812 3.597656 13.5 3.046875 C 13.988281 2.503906 14.234375 1.648438 14.234375 0.484375 Z M 7.234375 -8.359375 C 7.234375 -7.128906 7.585938 -6.09375 8.296875 -5.25 C 9.003906 -4.414062 9.828125 -4 10.765625 -4 C 11.671875 -4 12.472656 -4.304688 13.171875 -4.921875 C 13.878906 -5.535156 14.234375 -6.269531 14.234375 -7.125 L 14.234375 -10.203125 C 14.234375 -11.023438 13.867188 -11.722656 13.140625 -12.296875 C 12.410156 -12.867188 11.617188 -13.15625 10.765625 -13.15625 C 9.742188 -13.15625 8.898438 -12.828125 8.234375 -12.171875 C 7.566406 -11.523438 7.234375 -10.570312 7.234375 -9.3125 Z M 7.234375 -8.359375 "/></g></g></g><g fill="#004aad" fill-opacity="1"><g transform="translate(225.009592, 247.497757)"><g><path d="M 19.5625 -5.359375 C 19.320312 -3.734375 18.394531 -2.394531 16.78125 -1.34375 C 15.164062 -0.289062 13.195312 0.234375 10.875 0.234375 C 7.414062 0.234375 4.84375 -0.738281 3.15625 -2.6875 C 1.769531 -4.28125 1.078125 -6.238281 1.078125 -8.5625 C 1.078125 -11.175781 1.875 -13.300781 3.46875 -14.9375 C 5.070312 -16.582031 7.503906 -17.40625 10.765625 -17.40625 C 13.984375 -17.40625 16.375 -16.582031 17.9375 -14.9375 C 19.5 -13.300781 20.28125 -11.175781 20.28125 -8.5625 L 20.28125 -6.84375 L 7.234375 -6.84375 C 7.367188 -5.800781 7.726562 -5.066406 8.3125 -4.640625 C 8.90625 -4.210938 9.75 -4 10.84375 -4 C 12.550781 -4 13.441406 -4.453125 13.515625 -5.359375 Z M 10.84375 -13.15625 C 9.957031 -13.15625 9.222656 -12.984375 8.640625 -12.640625 C 8.054688 -12.296875 7.585938 -11.601562 7.234375 -10.5625 L 14.40625 -10.5625 C 14.132812 -11.570312 13.703125 -12.253906 13.109375 -12.609375 C 12.523438 -12.972656 11.769531 -13.15625 10.84375 -13.15625 Z M 10.84375 -13.15625 "/></g></g></g><g fill="#004aad" fill-opacity="1"><g transform="translate(246.167485, 247.497757)"><g><path d="M 8.046875 0 L 1.875 0 L 1.875 -23.40625 L 8.046875 -23.40625 L 8.046875 -13.6875 L 16.515625 -13.6875 L 16.515625 -23.40625 L 22.6875 -23.40625 L 22.6875 0 L 16.515625 0 L 16.515625 -8.84375 L 8.046875 -8.84375 Z M 8.046875 0 "/></g></g></g><g fill="#004aad" fill-opacity="1"><g transform="translate(270.725039, 247.497757)"><g><path d="M 13.125 0.234375 C 9.039062 0.234375 5.90625 -1.109375 3.71875 -3.796875 C 1.957031 -5.960938 1.078125 -8.523438 1.078125 -11.484375 C 1.078125 -14.628906 1.957031 -17.347656 3.71875 -19.640625 C 5.90625 -22.441406 9.039062 -23.84375 13.125 -23.84375 C 17.175781 -23.84375 20.320312 -22.441406 22.5625 -19.640625 C 24.289062 -17.398438 25.15625 -14.679688 25.15625 -11.484375 C 25.15625 -8.460938 24.25 -5.863281 22.4375 -3.6875 L 25.953125 -3.6875 L 25.953125 0 L 15.875 0 C 15.050781 0.15625 14.132812 0.234375 13.125 0.234375 Z M 8.8125 -6.390625 C 9.875 -5.117188 11.3125 -4.484375 13.125 -4.484375 C 14.9375 -4.484375 16.367188 -5.117188 17.421875 -6.390625 C 18.472656 -7.671875 19 -9.367188 19 -11.484375 C 19 -13.722656 18.476562 -15.554688 17.4375 -16.984375 C 16.394531 -18.410156 14.953125 -19.125 13.109375 -19.125 C 11.273438 -19.125 9.835938 -18.410156 8.796875 -16.984375 C 7.753906 -15.554688 7.234375 -13.722656 7.234375 -11.484375 C 7.234375 -9.367188 7.757812 -7.671875 8.8125 -6.390625 Z M 8.8125 -6.390625 "/></g></g></g></svg>